<?xml version="1.0" encoding="utf-8"?>
<!-- Generator: Adobe Illustrator 25.0.1, SVG Export Plug-In . SVG Version: 6.00 Build 0)  -->
<svg version="1.1" id="Layer_1" xmlns="http://www.w3.org/2000/svg" xmlns:xlink="http://www.w3.org/1999/xlink" x="0px" y="0px"
	 viewBox="0 0 35 35" style="enable-background:new 0 0 35 35;" xml:space="preserve">
<style type="text/css">
	.st0{fill:none;stroke:#000000;stroke-width:3;stroke-miterlimit:10;}
	.st1{display:none;stroke:#000000;stroke-miterlimit:10;}
	.st2{display:none;fill:#FFFFFF;stroke:#000000;stroke-miterlimit:10;}
</style>
<path class="st0" d="M9.7,14.1V8.6c0-5.4,4.4-6.7,7.3-6.7h0.9c2.9,0,7.3,1.4,7.3,6.7v5.5"/>
<path class="st1" d="M21.3,20c0,7.3-3.8,10.1-3.8,10.1S13.7,27,13.7,20c0-2.1,1.7-3.8,3.8-3.8S21.3,17.9,21.3,20z"/>
<circle class="st2" cx="17.5" cy="20.8" r="2.4"/>
<path d="M26.5,33.1H8.5c-1.7,0-3-1.4-3-3V18.4c0-1.7,1.4-3,3-3h18.1c1.7,0,3,1.4,3,3v11.7C29.6,31.7,28.2,33.1,26.5,33.1z M19.1,25
	c0.9-0.6,1.6-1.6,1.6-2.8c0-1.8-1.4-3.2-3.2-3.2s-3.2,1.4-3.2,3.2c0,1.1,0.7,2.2,1.5,2.7 M19.1,25 M15.8,24.9v5.4h3.4l0-5.4
	L15.8,24.9z"/>
</svg>
