<?xml version="1.0" encoding="utf-8"?>
<!-- Generator: Adobe Illustrator 25.0.1, SVG Export Plug-In . SVG Version: 6.00 Build 0)  -->
<svg version="1.1" xmlns="http://www.w3.org/2000/svg" xmlns:xlink="http://www.w3.org/1999/xlink" x="0px" y="0px"
	 viewBox="0 0 512 512" style="enable-background:new 0 0 512 512;" xml:space="preserve">
<style type="text/css">
	.st0{display:none;}
	.st1{display:inline;fill:#FFFFFF;stroke:#000000;stroke-width:20;stroke-linejoin:bevel;stroke-miterlimit:10;}
	.st2{display:inline;fill:none;stroke:#000000;stroke-width:20;stroke-miterlimit:10;}
	.st3{fill:none;stroke:#000000;stroke-width:10;stroke-miterlimit:10;}
	.st4{fill:#FFFFFF;}
	.st5{display:inline;}
</style>
<g id="Layer_1" class="st0">
	<polygon class="st1" points="255.3,18.9 460.6,137.4 346.5,203.9 461.5,271.3 461.5,375.2 255.3,494 49.6,375.2 163.6,309 
		50,242.5 49.6,137.7 	"/>
	<polygon class="st2" points="164.1,204 164.1,309.3 255.3,362 346.5,309.3 346.5,204 255.3,151.4 	"/>
	<line class="st3" x1="164.1" y1="203.9" x2="255.8" y2="256.9"/>
	<line class="st3" x1="346.5" y1="204.8" x2="255.8" y2="256.9"/>
	<line class="st3" x1="255.8" y1="362" x2="255.8" y2="256.4"/>
	<line class="st3" x1="164.1" y1="203.9" x2="49.1" y2="137.4"/>
	<line class="st3" x1="346.5" y1="309" x2="461.5" y2="375.5"/>
</g>
<g id="Layer_3">
	<rect class="st4" width="512" height="512"/>
</g>
<g id="Layer_4">
	<polygon points="387.2,46.3 176.4,46.3 69.7,229.7 117,309.9 234.1,309.9 187.8,229.7 234.8,148.4 327.9,148.4 	"/>
	<polygon points="124.8,475.3 335.6,475.3 442.3,291.8 395,211.7 278,211.7 324.2,291.8 277.2,373.2 184.2,373.2 	"/>
</g>
<g id="Layer_2" class="st0">
	<polygon class="st5" points="85.4,232.3 193.6,232.4 236.6,157.9 322.6,157.8 376.1,64 182.4,64.1 	"/>
	<polygon class="st5" points="85.4,232.3 193.6,232.4 236.6,306.9 128.6,306.3 	"/>
	<polygon class="st5" points="426.6,290.5 318.4,290.4 275.4,364.9 189.4,364.9 135.9,458.7 329.6,458.6 	"/>
	<polygon class="st5" points="426.6,290.5 318.4,290.4 275.4,215.8 383.4,216.5 	"/>
</g>
</svg>
