<?xml version="1.0" encoding="utf-8"?>
<!-- Generator: Adobe Illustrator 25.0.1, SVG Export Plug-In . SVG Version: 6.00 Build 0)  -->
<svg version="1.1" id="Layer_1" xmlns="http://www.w3.org/2000/svg" xmlns:xlink="http://www.w3.org/1999/xlink" x="0px" y="0px"
	 viewBox="0 0 35 35" style="enable-background:new 0 0 35 35;" xml:space="preserve">
<style type="text/css">
	.st0{display:none;fill:none;stroke:#000000;stroke-width:3;stroke-miterlimit:10;}
	.st1{fill:none;stroke:#000000;stroke-width:3;stroke-linecap:round;stroke-linejoin:round;stroke-miterlimit:10;}
</style>
<path class="st0" d="M24.7,4.9c4.4,2.5,7.3,7.2,7.3,12.6c0,6.2-3.9,11.5-9.4,13.6"/>
<path class="st1" d="M22.7,31.1c-5.5-2.1-9.4-7.4-9.4-13.6c0-5.8,4.1-11,9.1-13.3c0.2-0.1,0.2-0.3,0-0.4C20.4,3.2,20,3,18,2.9
	C10.8,2.9,4.4,7.8,3.2,14.9c-1.6,9.2,5.4,17.2,14.3,17.2C19.3,32.1,21.1,31.7,22.7,31.1L22.7,31.1z"/>
<polygon points="22.7,3.9 16.4,2.9 8.6,6 4,12.1 2.9,21.1 7.9,28.5 14.9,31.8 21.4,31.5 14.7,23.8 13.9,13.4 19.7,5.4 "/>
</svg>
