<?xml version="1.0" encoding="utf-8"?>
<!-- Generator: Adobe Illustrator 25.0.1, SVG Export Plug-In . SVG Version: 6.00 Build 0)  -->
<svg version="1.1" id="Layer_1" xmlns="http://www.w3.org/2000/svg" xmlns:xlink="http://www.w3.org/1999/xlink" x="0px" y="0px"
	 viewBox="0 0 35 35" style="enable-background:new 0 0 35 35;" xml:space="preserve">
<style type="text/css">
	.st0{fill:none;stroke:#000000;stroke-width:3;stroke-miterlimit:10;}
	.st1{fill:#ED1C24;}
	.st2{fill:#FFFFFF;}
	.st3{fill:none;stroke:#000000;stroke-width:2;stroke-miterlimit:10;}
</style>
<path class="st0" d="M4.3,13.8C5.7,7.9,10.9,3.5,17.2,3.5c7.3,0,13.3,5.9,13.3,13.3"/>
<path class="st0" d="M30.6,21.9c-1.3,5.9-6.5,10.4-12.8,10.4c-7.3,0.1-13.3-5.8-13.4-13.1"/>
<g>
	<path class="st1" d="M23.4,15.6c0,3.4-2.8,6.2-6.2,6.2c-1.9,0-3.6-0.9-4.8-2.3c-0.9-1.1-1.4-2.4-1.4-3.9c0-3.4,2.8-6.2,6.2-6.2
		S23.4,12.2,23.4,15.6z"/>
	<polyline class="st1" points="22.4,19 17.2,27.7 12,19 	"/>
	<circle class="st2" cx="17.2" cy="15.6" r="3.6"/>
</g>
<polyline class="st3" points="26.1,13.3 31.4,17.6 33.1,11 "/>
<polyline class="st3" points="8.6,22.1 3.3,17.8 1.6,24.4 "/>
</svg>
