<?xml version="1.0" standalone="no"?>
<!DOCTYPE svg PUBLIC "-//W3C//DTD SVG 20010904//EN"
 "http://www.w3.org/TR/2001/REC-SVG-20010904/DTD/svg10.dtd">
<svg version="1.0" xmlns="http://www.w3.org/2000/svg"
 width="700.000000pt" height="700.000000pt" viewBox="0 0 700.000000 700.000000"
 preserveAspectRatio="xMidYMid meet">
<metadata>
Created by potrace 1.14, written by Peter Selinger 2001-2017
</metadata>
<g transform="translate(0.000000,700.000000) scale(0.100000,-0.100000)"
fill="#000000" stroke="none">
<path d="M1686 5119 c-429 -736 -726 -1257 -723 -1267 4 -17 622 -1070 636
-1085 4 -4 366 -6 804 -5 l796 3 -314 545 c-173 300 -315 547 -315 550 0 3
144 253 319 555 l318 550 639 5 639 5 402 690 c221 380 402 693 402 698 1 4
-646 7 -1437 7 l-1439 0 -727 -1251z"/>
<path d="M3810 4100 c0 -6 137 -248 305 -539 167 -290 307 -534 310 -542 2 -8
-138 -261 -313 -564 l-318 -550 -639 -5 -638 -5 -404 -693 c-221 -382 -403
-695 -403 -698 0 -2 647 -4 1439 -4 l1438 0 727 1249 c399 687 726 1255 726
1261 0 7 -144 257 -321 556 l-321 544 -794 0 c-545 0 -794 -3 -794 -10z"/>
</g>
</svg>
